<?xml version="1.0" encoding="utf-8"?>
<!-- Svg Vector Icons : http://www.onlinewebfonts.com/icon -->
<!DOCTYPE svg PUBLIC "-//W3C//DTD SVG 1.1//EN" "http://www.w3.org/Graphics/SVG/1.1/DTD/svg11.dtd">
<svg version="1.1" xmlns="http://www.w3.org/2000/svg" xmlns:xlink="http://www.w3.org/1999/xlink" x="0px" y="0px" viewBox="0 0 1000 1000" enable-background="new 0 0 1000 1000" xml:space="preserve">
<metadata> Svg Vector Icons : http://www.onlinewebfonts.com/icon </metadata>
<g><g transform="translate(0.000000,511.000000) scale(0.100000,-0.100000)"><path d="M2723.2,4834.9C1479.8,4353.3,545.4,3305.6,224.9,2029.7C65.7,1396.5,58,713.4,205.8,76.4C432.2-906.1,1057.7-1804,1915.4-2375.8c330-220.7,802.1-439.4,1155.1-537.3c773.3-213,1629-193.8,2375.4,51.8c199.6,65.2,610.2,236,640.9,266.7c1.9,3.8-28.8,84.4-72.9,182.3c-337.7,769.4-249.5,1667.4,237.9,2383.1c132.4,191.9,447.1,504.6,637,629.4c372.2,247.5,788.6,389.5,1216.5,420.2l161.2,11.5l-11.5,222.6c-28.8,552.6-155.4,1034.2-406.8,1546.5c-333.9,683.1-825.1,1241.5-1456.4,1650.1c-163.1,105.5-518,297.4-552.6,297.4c-7.7,0-15.4-289.7-15.4-642.8V3463h-614h-614v-604.4v-604.4h614h614v-619.8v-617.8L5225.3,817c-330-109.4-610.2-207.2-621.7-220.7c-11.5-11.5-197.6-460.5-410.6-999.7c-214.9-537.3-397.2-993.9-406.8-1011.2c-13.4-26.9-166.9,59.5-1041.9,583.3L1717.7-215.3v1235.7v1233.8l614,406.8l612.1,408.7l1.9,926.8c0,508.5-1.9,924.9-3.8,922.9C2938.1,4919.3,2840.2,4881,2723.2,4834.9z"/><path d="M8126.4,189.6c-617.9-71-1126.3-449-1358.5-1011.2c-65.2-155.4-119-391.4-119-521.9v-86.3h402.9h402.9v63.3c0,34.6,13.4,111.3,30.7,168.9c115.1,383.7,516.2,640.9,903.7,577.5c364.6-61.4,635.1-330,698.4-692.7c55.7-310.8-101.7-644.7-381.8-825.1c-147.7-92.1-266.7-117.1-564.1-117.1H7877v-614v-614h402.9h402.9v239.8c0,205.3,3.8,239.9,30.7,239.9c57.6,0,318.5,120.9,454.8,211.1c126.6,82.5,320.4,262.9,414.5,383.8c84.4,111.3,176.5,293.6,230.3,454.8c199.5,591,49.9,1226.1-389.5,1667.4c-216.8,216.8-477.8,362.6-765.6,429.8C8494.8,180,8243.5,203,8126.4,189.6z"/><path d="M8086.2-3949.2c-278.2-147.7-278.2-562.2,0-702.3c165-82.5,335.8-57.6,466.3,69.1c203.4,197.6,138.2,539.2-122.8,648.5C8324.1-3891.6,8185.9-3897.4,8086.2-3949.2z"/></g></g>
</svg>